<svg width="35" height="35" viewBox="0 0 35 35" fill="none" xmlns="http://www.w3.org/2000/svg">
<path d="M28.4375 32.0833C29.0177 32.0833 29.5741 31.8528 29.9843 31.4425C30.3946 31.0323 30.625 30.4759 30.625 29.8958C30.625 29.3156 30.3946 28.7592 29.9843 28.349C29.5741 27.9387 29.0177 27.7083 28.4375 27.7083C27.8574 27.7083 27.301 27.9387 26.8907 28.349C26.4805 28.7592 26.25 29.3156 26.25 29.8958C26.25 30.4759 26.4805 31.0323 26.8907 31.4425C27.301 31.8528 27.8574 32.0833 28.4375 32.0833ZM13.8542 32.0833C14.4343 32.0833 14.9907 31.8528 15.401 31.4425C15.8112 31.0323 16.0417 30.4759 16.0417 29.8958C16.0417 29.3156 15.8112 28.7592 15.401 28.349C14.9907 27.9387 14.4343 27.7083 13.8542 27.7083C13.274 27.7083 12.7176 27.9387 12.3074 28.349C11.8972 28.7592 11.6667 29.3156 11.6667 29.8958C11.6667 30.4759 11.8972 31.0323 12.3074 31.4425C12.7176 31.8528 13.274 32.0833 13.8542 32.0833Z" fill="#242323" stroke="#242323" stroke-width="1.5" stroke-linecap="round" stroke-linejoin="round"/>
<path d="M7.29169 5.83329H32.0834L29.1667 21.875M7.29169 5.83329L10.2084 21.875H29.1667M7.29169 5.83329C7.04815 4.86058 5.83335 2.91663 2.91669 2.91663M29.1667 21.875H7.6271C5.02544 21.875 3.64585 23.0139 3.64585 24.7916C3.64585 26.5693 5.02544 27.7083 7.6271 27.7083H28.4375" stroke="#242323" stroke-width="1.5" stroke-linecap="round" stroke-linejoin="round"/>
</svg>
