<svg width="155" height="50" viewBox="0 0 247 45" fill="none" xmlns="http://www.w3.org/2000/svg">
<path d="M24.7224 13.1447C17.3255 10.5151 9.28533 10.2979 1.75718 12.5244C1.45794 12.596 1.1762 12.7271 0.928784 12.91C0.681364 13.0929 0.473337 13.3238 0.317122 13.5889C0.160908 13.854 0.0597103 14.1478 0.0195713 14.4529C-0.0205677 14.7579 0.00117516 15.068 0.0835016 15.3644C0.495532 17.018 1.09654 18.9178 1.81837 20.6403C1.83076 20.6805 1.85012 20.6612 1.85012 20.6209C1.74556 19.8131 2.36671 18.7931 3.58498 18.4221C9.43973 16.5588 15.7405 16.6422 21.5439 18.6599C21.758 18.7331 21.9845 18.7627 22.2102 18.747C22.4359 18.7312 22.6561 18.6705 22.858 18.5683C23.0598 18.4661 23.2391 18.3245 23.3853 18.1519C23.5316 17.9792 23.6418 17.7791 23.7094 17.5632C24.4312 15.2397 24.7224 13.6621 24.7945 13.2671C24.8069 13.1935 24.7418 13.1649 24.7224 13.1447ZM6.8758 18.2564C5.98901 18.4415 4.76299 18.7327 3.84289 19.0378C2.00347 19.6721 2.08866 21.9104 3.0684 22.6245C3.14042 22.2094 3.58498 21.6448 4.08066 21.4543C5.91698 20.7324 7.88884 20.301 9.88238 20.1229C8.86935 19.7116 7.88109 19.1223 6.88897 18.2556L6.8758 18.2564ZM21.5191 22.7376C18.8765 21.4959 16.0117 20.7966 13.0942 20.681C10.1767 20.5654 7.26557 21.0359 4.53296 22.0646C3.65701 22.3953 3.10867 23.461 3.65701 24.4725C4.61493 26.2043 5.70205 27.8615 6.9091 29.43C6.73562 28.829 7.04232 27.716 8.21955 27.352C11.4755 26.3514 14.8918 26.7758 17.1626 27.6951C17.8039 27.953 18.7116 27.7966 19.2204 27.0345C20.0882 25.6977 20.8775 24.3116 21.5842 22.8832C21.6159 22.8189 21.5842 22.7709 21.5191 22.7376ZM16.2433 30.7613C15.2908 30.2804 14.4198 29.6529 13.6619 28.9018C13.3111 28.5509 12.7945 28.0467 12.25 27.4457C11.0069 27.4457 9.80029 27.5704 8.50998 27.9825C7.31184 28.3573 7.19954 29.7413 7.72387 30.4632C8.61067 31.5684 9.23258 32.1647 10.2247 33.1901C10.7505 33.7059 11.4566 33.9964 12.193 34C12.9295 34.0036 13.6384 33.72 14.1692 33.2095C14.9437 32.435 15.42 31.9184 16.2952 30.9263C16.3471 30.8736 16.3277 30.7815 16.2433 30.7613Z" fill="black"/>
<path d="M57.946 11.76V33H51.286V24.72H44.956V33H38.296V11.76H44.956V19.41H51.286V11.76H57.946ZM60.9425 24.54C60.9425 22.76 61.2425 21.22 61.8425 19.92C62.4625 18.6 63.3025 17.6 64.3625 16.92C65.4225 16.22 66.6125 15.87 67.9325 15.87C69.0325 15.87 69.9825 16.1 70.7825 16.56C71.5825 17 72.1925 17.61 72.6125 18.39V16.08H79.2425V33H72.6125V30.69C72.1925 31.47 71.5825 32.09 70.7825 32.55C69.9825 32.99 69.0325 33.21 67.9325 33.21C66.6125 33.21 65.4225 32.87 64.3625 32.19C63.3025 31.49 62.4625 30.49 61.8425 29.19C61.2425 27.87 60.9425 26.32 60.9425 24.54ZM72.6125 24.54C72.6125 23.64 72.3825 22.94 71.9225 22.44C71.4625 21.94 70.8725 21.69 70.1525 21.69C69.4325 21.69 68.8425 21.94 68.3825 22.44C67.9225 22.94 67.6925 23.64 67.6925 24.54C67.6925 25.44 67.9225 26.14 68.3825 26.64C68.8425 27.14 69.4325 27.39 70.1525 27.39C70.8725 27.39 71.4625 27.14 71.9225 26.64C72.3825 26.14 72.6125 25.44 72.6125 24.54ZM94.9831 15.96C96.9231 15.96 98.4331 16.61 99.5131 17.91C100.613 19.21 101.163 20.97 101.163 23.19V33H94.5331V24.03C94.5331 23.23 94.3131 22.6 93.8731 22.14C93.4531 21.66 92.8831 21.42 92.1631 21.42C91.4231 21.42 90.8431 21.66 90.4231 22.14C90.0031 22.6 89.7931 23.23 89.7931 24.03V33H83.1331V16.08H89.7931V18.66C90.3131 17.86 91.0031 17.21 91.8631 16.71C92.7431 16.21 93.7831 15.96 94.9831 15.96ZM104.051 24.54C104.051 22.76 104.351 21.22 104.951 19.92C105.571 18.6 106.411 17.6 107.471 16.92C108.531 16.22 109.721 15.87 111.041 15.87C112.141 15.87 113.081 16.1 113.861 16.56C114.661 17 115.271 17.61 115.691 18.39V10.8H122.351V33H115.691V30.69C115.271 31.47 114.661 32.09 113.861 32.55C113.081 32.99 112.141 33.21 111.041 33.21C109.721 33.21 108.531 32.87 107.471 32.19C106.411 31.49 105.571 30.49 104.951 29.19C104.351 27.87 104.051 26.32 104.051 24.54ZM115.721 24.54C115.721 23.64 115.491 22.94 115.031 22.44C114.571 21.94 113.981 21.69 113.261 21.69C112.541 21.69 111.951 21.94 111.491 22.44C111.031 22.94 110.801 23.64 110.801 24.54C110.801 25.44 111.031 26.14 111.491 26.64C111.951 27.14 112.541 27.39 113.261 27.39C113.981 27.39 114.571 27.14 115.031 26.64C115.491 26.14 115.721 25.44 115.721 24.54ZM125.342 24.54C125.342 22.78 125.702 21.25 126.422 19.95C127.162 18.63 128.182 17.62 129.482 16.92C130.802 16.22 132.302 15.87 133.982 15.87C136.182 15.87 138.032 16.49 139.532 17.73C141.052 18.97 142.012 20.69 142.412 22.89H135.362C135.102 22.01 134.592 21.57 133.832 21.57C133.292 21.57 132.862 21.82 132.542 22.32C132.242 22.82 132.092 23.56 132.092 24.54C132.092 25.52 132.242 26.26 132.542 26.76C132.862 27.26 133.292 27.51 133.832 27.51C134.592 27.51 135.102 27.07 135.362 26.19H142.412C142.012 28.39 141.052 30.11 139.532 31.35C138.032 32.59 136.182 33.21 133.982 33.21C132.302 33.21 130.802 32.86 129.482 32.16C128.182 31.46 127.162 30.46 126.422 29.16C125.702 27.84 125.342 26.3 125.342 24.54ZM152.083 19.2C152.763 18.22 153.593 17.44 154.573 16.86C155.553 16.26 156.573 15.96 157.633 15.96V23.07H155.743C154.483 23.07 153.553 23.29 152.953 23.73C152.373 24.17 152.083 24.95 152.083 26.07V33H145.423V16.08H152.083V19.2ZM159.427 24.54C159.427 22.76 159.727 21.22 160.327 19.92C160.947 18.6 161.787 17.6 162.847 16.92C163.907 16.22 165.097 15.87 166.417 15.87C167.517 15.87 168.467 16.1 169.267 16.56C170.067 17 170.677 17.61 171.097 18.39V16.08H177.727V33H171.097V30.69C170.677 31.47 170.067 32.09 169.267 32.55C168.467 32.99 167.517 33.21 166.417 33.21C165.097 33.21 163.907 32.87 162.847 32.19C161.787 31.49 160.947 30.49 160.327 29.19C159.727 27.87 159.427 26.32 159.427 24.54ZM171.097 24.54C171.097 23.64 170.867 22.94 170.407 22.44C169.947 21.94 169.357 21.69 168.637 21.69C167.917 21.69 167.327 21.94 166.867 22.44C166.407 22.94 166.177 23.64 166.177 24.54C166.177 25.44 166.407 26.14 166.867 26.64C167.327 27.14 167.917 27.39 168.637 27.39C169.357 27.39 169.947 27.14 170.407 26.64C170.867 26.14 171.097 25.44 171.097 24.54ZM191.368 14.88C191.008 14.84 190.758 14.82 190.618 14.82C190.118 14.82 189.738 14.92 189.478 15.12C189.218 15.3 189.038 15.62 188.938 16.08H191.368V21.63H188.878V33H182.218V21.63H180.418V16.08H182.218C182.258 13.88 182.948 12.18 184.288 10.98C185.648 9.76 187.548 9.15 189.988 9.15C190.268 9.15 190.728 9.17 191.368 9.21V14.88ZM204.59 27.33V33H202.07C197.43 33 195.11 30.69 195.11 26.07V21.63H193.01V16.08H195.11V12H201.77V16.08H204.53V21.63H201.77V26.19C201.77 26.59 201.86 26.88 202.04 27.06C202.24 27.24 202.56 27.33 203 27.33H204.59ZM224.407 24.39C224.407 24.85 224.377 25.29 224.317 25.71H213.607C213.707 27.17 214.317 27.9 215.437 27.9C216.157 27.9 216.677 27.57 216.997 26.91H224.047C223.807 28.11 223.297 29.19 222.517 30.15C221.757 31.09 220.787 31.84 219.607 32.4C218.447 32.94 217.167 33.21 215.767 33.21C214.087 33.21 212.587 32.86 211.267 32.16C209.967 31.46 208.947 30.46 208.207 29.16C207.487 27.84 207.127 26.3 207.127 24.54C207.127 22.78 207.487 21.25 208.207 19.95C208.947 18.63 209.967 17.62 211.267 16.92C212.587 16.22 214.087 15.87 215.767 15.87C217.447 15.87 218.937 16.22 220.237 16.92C221.557 17.6 222.577 18.58 223.297 19.86C224.037 21.14 224.407 22.65 224.407 24.39ZM217.657 22.8C217.657 22.24 217.477 21.82 217.117 21.54C216.757 21.24 216.307 21.09 215.767 21.09C214.587 21.09 213.897 21.66 213.697 22.8H217.657ZM226.513 24.54C226.513 22.76 226.813 21.22 227.413 19.92C228.033 18.6 228.873 17.6 229.933 16.92C230.993 16.22 232.183 15.87 233.503 15.87C234.603 15.87 235.543 16.1 236.323 16.56C237.123 17 237.733 17.61 238.153 18.39V10.8H244.813V33H238.153V30.69C237.733 31.47 237.123 32.09 236.323 32.55C235.543 32.99 234.603 33.21 233.503 33.21C232.183 33.21 230.993 32.87 229.933 32.19C228.873 31.49 228.033 30.49 227.413 29.19C226.813 27.87 226.513 26.32 226.513 24.54ZM238.183 24.54C238.183 23.64 237.953 22.94 237.493 22.44C237.033 21.94 236.443 21.69 235.723 21.69C235.003 21.69 234.413 21.94 233.953 22.44C233.493 22.94 233.263 23.64 233.263 24.54C233.263 25.44 233.493 26.14 233.953 26.64C234.413 27.14 235.003 27.39 235.723 27.39C236.443 27.39 237.033 27.14 237.493 26.64C237.953 26.14 238.183 25.44 238.183 24.54Z" fill="black"/>
</svg>
