<svg width="35" height="35" viewBox="0 0 35 35" fill="none" xmlns="http://www.w3.org/2000/svg">
<g id="iconamoon:search">
<path id="Vector" d="M30.625 30.6251L24.2915 24.2915M24.2915 24.2915C25.3748 23.2081 26.2342 21.922 26.8205 20.5065C27.4069 19.091 27.7086 17.5739 27.7086 16.0417C27.7086 14.5096 27.4069 12.9925 26.8205 11.577C26.2342 10.1615 25.3748 8.87531 24.2915 7.79193C23.2081 6.70855 21.9219 5.84917 20.5064 5.26285C19.0909 4.67653 17.5738 4.37476 16.0417 4.37476C14.5095 4.37476 12.9924 4.67653 11.5769 5.26285C10.1614 5.84917 8.87525 6.70855 7.79187 7.79193C5.60389 9.97991 4.37469 12.9475 4.37469 16.0417C4.37469 19.136 5.60389 22.1035 7.79187 24.2915C9.97985 26.4795 12.9474 27.7087 16.0417 27.7087C19.1359 27.7087 22.1035 26.4795 24.2915 24.2915Z" stroke="#242323" stroke-width="2" stroke-linecap="round" stroke-linejoin="round"/>
</g>
</svg>
