<svg width="155" height="155" viewBox="0 0 247 45" fill="none" xmlns="http://www.w3.org/2000/svg">
<path d="M24.7224 13.1447C17.3255 10.5151 9.28533 10.2979 1.75718 12.5244C1.45794 12.596 1.1762 12.7271 0.928784 12.91C0.681364 13.0929 0.473337 13.3238 0.317122 13.5889C0.160908 13.854 0.0597103 14.1478 0.0195713 14.4529C-0.0205677 14.7579 0.00117516 15.068 0.0835016 15.3644C0.495532 17.018 1.09654 18.9178 1.81837 20.6403C1.83076 20.6805 1.85012 20.6612 1.85012 20.6209C1.74556 19.8131 2.36671 18.7931 3.58498 18.4221C9.43973 16.5588 15.7405 16.6422 21.5439 18.6599C21.758 18.7331 21.9845 18.7627 22.2102 18.747C22.4359 18.7312 22.6561 18.6705 22.858 18.5683C23.0598 18.4661 23.2391 18.3245 23.3853 18.1519C23.5316 17.9792 23.6418 17.7791 23.7094 17.5632C24.4312 15.2397 24.7224 13.6621 24.7945 13.2671C24.8069 13.1935 24.7418 13.1649 24.7224 13.1447ZM6.8758 18.2564C5.98901 18.4415 4.76299 18.7327 3.84289 19.0378C2.00347 19.6721 2.08866 21.9104 3.0684 22.6245C3.14042 22.2094 3.58498 21.6448 4.08066 21.4543C5.91698 20.7324 7.88884 20.301 9.88238 20.1229C8.86935 19.7116 7.88109 19.1223 6.88897 18.2556L6.8758 18.2564ZM21.5191 22.7376C18.8765 21.4959 16.0117 20.7966 13.0942 20.681C10.1767 20.5654 7.26557 21.0359 4.53296 22.0646C3.65701 22.3953 3.10867 23.461 3.65701 24.4725C4.61493 26.2043 5.70205 27.8615 6.9091 29.43C6.73562 28.829 7.04232 27.716 8.21955 27.352C11.4755 26.3514 14.8918 26.7758 17.1626 27.6951C17.8039 27.953 18.7116 27.7966 19.2204 27.0345C20.0882 25.6977 20.8775 24.3116 21.5842 22.8832C21.6159 22.8189 21.5842 22.7709 21.5191 22.7376ZM16.2433 30.7613C15.2908 30.2804 14.4198 29.6529 13.6619 28.9018C13.3111 28.5509 12.7945 28.0467 12.25 27.4457C11.0069 27.4457 9.80029 27.5704 8.50998 27.9825C7.31184 28.3573 7.19954 29.7413 7.72387 30.4632C8.61067 31.5684 9.23258 32.1647 10.2247 33.1901C10.7505 33.7059 11.4566 33.9964 12.193 34C12.9295 34.0036 13.6384 33.72 14.1692 33.2095C14.9437 32.435 15.42 31.9184 16.2952 30.9263C16.3471 30.8736 16.3277 30.7815 16.2433 30.7613Z" fill="white"/>
</svg>
